<?xml version="1.0" encoding="UTF-8" standalone="no"?>
<svg
   xmlns:dc="http://purl.org/dc/elements/1.1/"
   xmlns:cc="http://creativecommons.org/ns#"
   xmlns:rdf="http://www.w3.org/1999/02/22-rdf-syntax-ns#"
   xmlns:svg="http://www.w3.org/2000/svg"
   xmlns="http://www.w3.org/2000/svg"
   xmlns:sodipodi="http://sodipodi.sourceforge.net/DTD/sodipodi-0.dtd"
   xmlns:inkscape="http://www.inkscape.org/namespaces/inkscape"
   width="376"
   height="94"
   viewBox="0 0 376 94"
   version="1.1"
   id="svg12"
   sodipodi:docname="logo.svg"
   inkscape:version="1.0.2 (e86c870879, 2021-01-15)">
  <metadata
     id="metadata18">
    <rdf:RDF>
      <cc:Work
         rdf:about="">
        <dc:format>image/svg+xml</dc:format>
        <dc:type
           rdf:resource="http://purl.org/dc/dcmitype/StillImage" />
        <dc:title></dc:title>
      </cc:Work>
    </rdf:RDF>
  </metadata>
  <defs
     id="defs16" />
  <sodipodi:namedview
     pagecolor="#000000"
     bordercolor="#666666"
     borderopacity="1"
     objecttolerance="10"
     gridtolerance="10"
     guidetolerance="10"
     inkscape:pageopacity="0"
     inkscape:pageshadow="2"
     inkscape:window-width="1920"
     inkscape:window-height="1016"
     id="namedview14"
     showgrid="false"
     inkscape:zoom="2.8922484"
     inkscape:cx="181.60359"
     inkscape:cy="47"
     inkscape:window-x="0"
     inkscape:window-y="0"
     inkscape:window-maximized="1"
     inkscape:current-layer="svg12" />
  <path
     fill="#3da639"
     d="m 51.8,62 c 6.1,-2.3 9.3,-6.7 9.3,-14.2 0,-7.6 -6.3,-14.2 -14.3,-14.2 -8.4,0 -14.8,6.6 -14.7,14.2 0.1,7.5 3.8,12.6 9.6,14.4 L 31.4,87.4 C 17.6,83.8 3.6,67.7 3.6,47.8 3.6,24.2 22.6,5 46.5,5 a 43,43 0 0 1 43.1,42.7 c 0,20.2 -13.8,36.1 -27.9,39.6 L 51.7,62 Z"
     id="path2"
     style="fill-rule:evenodd" />
  <path
     stroke="#1e531d"
     stroke-linecap="round"
     stroke-linejoin="round"
     stroke-width="4"
     d="m 51.8,62 c 6.1,-2.3 9.3,-6.7 9.3,-14.2 0,-7.6 -6.3,-14.2 -14.3,-14.2 -8.4,0 -14.8,6.6 -14.7,14.2 0.1,7.5 3.8,12.6 9.6,14.4 L 31.4,87.4 C 17.6,83.8 3.6,67.7 3.6,47.8 3.6,24.2 22.6,5 46.5,5 a 43,43 0 0 1 43.1,42.7 c 0,20.2 -13.8,36.1 -27.9,39.6 L 51.7,62 Z"
     id="path4"
     style="fill:none;fill-rule:evenodd" />
  <path
     fill="#3da639"
     fill-rule="nonzero"
     d="m 82.7,88.2 a 2.6,2.6 0 0 0 1.8,-0.7 2.5,2.5 0 0 0 0.8,-1.9 2.6,2.6 0 0 0 -0.8,-1.8 l -0.8,-0.5 a 2.6,2.6 0 0 0 -2.8,0.5 2.5,2.5 0 0 0 -0.7,1.8 2.6,2.6 0 0 0 0.7,1.9 2.5,2.5 0 0 0 1.8,0.7 z m 0,-0.5 c -0.3,0 -0.6,0 -0.8,-0.2 -0.2,0 -0.5,-0.2 -0.6,-0.4 a 2,2 0 0 1 -0.4,-0.6 c -0.2,-0.3 -0.2,-0.6 -0.2,-0.9 a 2.2,2.2 0 0 1 0.6,-1.5 c 0.1,-0.2 0.4,-0.3 0.6,-0.4 l 0.8,-0.2 a 2,2 0 0 1 1.4,0.6 l 0.5,0.7 0.1,0.8 -0.1,0.9 a 1.9,1.9 0 0 1 -1,1 z M 82.3,86.9 V 86 h 0.5 l 0.5,0.9 h 0.6 l -0.6,-1 0.4,-0.4 0.1,-0.4 c 0,-0.3 -0.1,-0.5 -0.3,-0.6 -0.2,-0.2 -0.5,-0.2 -0.7,-0.2 h -1 v 2.6 z m 0.3,-1.3 h -0.3 v -0.9 h 0.4 l 0.4,0.1 0.1,0.3 c 0,0.3 -0.2,0.5 -0.6,0.5 z"
     id="path6" />
  <path
     fill="#ffffff"
     fill-rule="nonzero"
     d="m 126.6,45.4 c 2.5,0 4.5,-0.7 5.9,-2.2 1.3,-1.5 2,-3.6 2,-6.4 0,-2.7 -0.7,-4.8 -2,-6.3 -1.4,-1.5 -3.3,-2.2 -5.9,-2.2 -2.5,0 -4.5,0.7 -5.9,2.2 -1.3,1.4 -2,3.5 -2,6.3 0,2.8 0.7,5 2,6.4 1.4,1.5 3.3,2.2 5.9,2.2 z m 0,-3 c -1.4,0 -2.5,-0.4 -3.2,-1.4 -0.76753,-1.259668 -1.11752,-2.729606 -1,-4.2 -0.11752,-1.470394 0.23247,-2.940332 1,-4.2 0.8,-1 1.8,-1.4 3.2,-1.4 2.8,0 4.2,1.9 4.2,5.6 0,3.8 -1.4,5.6 -4.2,5.6 z m 14.6,8.4 V 45.6 L 141,43.8 h 0.2 c 0.8,1 2,1.6 3.5,1.6 1,0 1.8,-0.3 2.6,-0.8 0.77853,-0.584784 1.36937,-1.38416 1.7,-2.3 0.4,-1 0.6,-2.2 0.6,-3.5 0.0876,-1.697475 -0.36775,-3.378731 -1.3,-4.8 -0.8,-1.2 -2,-1.8 -3.5,-1.8 -1.45663,-0.07027 -2.83607,0.657773 -3.6,1.9 H 141 l -0.5,-1.7 h -2.8 v 18.4 z m 2.5,-8.2 c -0.9,0 -1.5,-0.3 -2,-0.9 -0.3,-0.6 -0.5,-1.6 -0.5,-3 v -0.3 c 0,-1.2 0.2,-2 0.6,-2.6 0.4,-0.5 1,-0.8 1.9,-0.8 0.8,0 1.4,0.3 1.8,1 0.4,0.6 0.5,1.5 0.5,2.7 0,2.6 -0.7,3.9 -2.3,3.9 z m 14.5,2.8 c 1,0 1.9,0 2.5,-0.2 l 2,-0.7 v -2.7 c -0.8,0.4 -1.5,0.6 -2.2,0.8 l -2.1,0.2 c -0.84529,0.07048 -1.6809,-0.220173 -2.3,-0.8 -0.6,-0.6 -0.9,-1.3 -0.9,-2.3 h 8.2 V 38 c 0,-1.8 -0.5,-3.2 -1.5,-4.3 -1,-1 -2.4,-1.5 -4.2,-1.5 -1.9,0 -3.4,0.6 -4.4,1.8 -1.13718,1.370361 -1.70934,3.12261 -1.6,4.9 0,2 0.6,3.7 1.7,4.8 1.30818,1.185933 3.03701,1.798228 4.8,1.7 z m 2,-8 h -5 c 0.1,-0.9 0.4,-1.6 0.8,-2 0.4,-0.5 1,-0.7 1.7,-0.7 0.8,0 1.3,0.2 1.8,0.7 0.4,0.4 0.6,1.1 0.7,2 z m 9.5,7.8 v -6 c 0,-1.5 0.2,-2.6 0.7,-3.2 0.4,-0.7 1,-1 2,-1 0.8,0 1.3,0.2 1.6,0.7 0.3,0.4 0.5,1.1 0.5,2 v 7.5 h 3.5 v -8.3 c 0,-1.5 -0.4,-2.7 -1.2,-3.5 -0.7,-0.8 -1.9,-1.2 -3.3,-1.2 -0.9,0 -1.7,0.2 -2.4,0.5 -0.6,0.3 -1.2,0.8 -1.6,1.4 h -0.1 l -0.5,-1.7 h -2.7 v 12.8 z m 21.9,0.2 c 1.60478,0.09627 3.19379,-0.362775 4.5,-1.3 1,-0.9 1.6,-2 1.6,-3.5 0,-1.1 -0.3,-2 -0.9,-2.8 -0.89173,-0.959937 -1.9844,-1.71115 -3.2,-2.2 l -2.2,-1.2 -0.7,-0.7 -0.2,-0.8 c 0,-0.5 0.2,-0.9 0.5,-1.2 0.4,-0.3 1,-0.5 1.6,-0.5 0.57271,-0.0031 1.14365,0.06404 1.7,0.2 l 2.2,0.8 1.1,-2.7 c -0.77621,-0.359969 -1.57849,-0.660824 -2.4,-0.9 -0.8,-0.2 -1.6,-0.3 -2.5,-0.3 -1.8,0 -3.1,0.4 -4.1,1.3 -1,0.8 -1.5,2 -1.5,3.4 0,0.8 0.1,1.5 0.4,2 0.3,0.7 0.7,1.2 1.2,1.6 0.5,0.5 1.3,1 2.3,1.4 l 2.2,1.1 0.8,0.8 c 0.2,0.2 0.3,0.5 0.3,0.8 0,0.6 -0.3,1 -0.7,1.3 -0.53149,0.353996 -1.16208,0.529158 -1.8,0.5 l -2,-0.3 -3,-1 v 3.2 c 1.4,0.7 3,1 4.8,1 z m 14.2,0 c 1.70549,0.114443 3.37882,-0.503963 4.6,-1.7 1,-1.2 1.6,-2.8 1.6,-5 0,-1.2 -0.2,-2.4 -0.7,-3.4 -0.5,-1 -1.2,-1.8 -2.2,-2.3 -1,-0.5 -2,-0.8 -3.2,-0.8 -1.70549,-0.114443 -3.37882,0.503963 -4.6,1.7 -1.15571,1.360066 -1.73038,3.119984 -1.6,4.9 0,1.3 0.2,2.5 0.7,3.5 0.5,1 1.3,1.8 2.2,2.3 1,0.5 2,0.8 3.2,0.8 z m 0,-2.8 c -0.9,0 -1.5,-0.3 -2,-1 -0.4,-0.6 -0.6,-1.5 -0.6,-2.8 0,-1.3 0.2,-2.2 0.6,-2.8 0.4,-0.7 1.1,-1 2,-1 1,0 1.6,0.3 2,1 0.5,0.6 0.7,1.5 0.7,2.8 0,1.3 -0.2,2.2 -0.6,2.9 -0.4,0.6 -1.1,1 -2,1 z m 13.5,2.8 c 1,0 1.7,-0.2 2.4,-0.5 0.7,-0.3 1.2,-0.8 1.6,-1.3 h 0.1 l 0.5,1.6 h 2.7 V 32.4 H 223 v 6 c 0,1.5 -0.2,2.6 -0.6,3.3 -0.5,0.6 -1.2,1 -2.2,1 -0.7,0 -1.2,-0.3 -1.5,-0.7 -0.3,-0.5 -0.5,-1.2 -0.5,-2.1 v -7.5 h -3.5 v 8.3 c 0,1.6 0.4,2.7 1.2,3.5 0.7,0.8 1.8,1.2 3.3,1.2 z m 14.4,-0.2 v -6.5 c -0.0487,-0.910389 0.31931,-1.793507 1,-2.4 0.5,-0.6 1.4,-0.8 2.5,-0.8 h 1 l 0.3,-3.2 h -1.2 c -0.77602,-0.0177 -1.54042,0.190777 -2.2,0.6 -0.6,0.4 -1.2,1 -1.6,1.7 h -0.1 l -0.6,-2.2 h -2.6 v 12.8 z m 12.3,0.2 c 0.8,0 1.6,0 2.1,-0.2 0.6,-0.1 1.2,-0.4 1.7,-0.7 v -3 c -0.5,0.4 -1,0.6 -1.7,0.8 -0.5,0.2 -1.1,0.3 -1.8,0.3 -1.8,0 -2.7,-1.3 -2.7,-3.7 0,-2.6 0.9,-3.9 2.7,-3.9 0.5,0 1,0 1.4,0.2 l 1.5,0.6 1,-2.7 c -1.24387,-0.610754 -2.6144,-0.919123 -4,-0.9 -2,0 -3.5,0.6 -4.6,1.7 -1,1.2 -1.6,2.8 -1.6,5 0,4.3 2,6.5 6,6.5 z m 12.6,0 c 1,0 1.8,0 2.5,-0.2 l 2,-0.7 v -2.7 c -0.8,0.4 -1.5,0.6 -2.2,0.8 l -2.2,0.2 c -0.84529,0.07048 -1.6809,-0.220173 -2.3,-0.8 -0.5,-0.6 -0.8,-1.3 -0.9,-2.3 h 8.2 V 38 c 0,-1.8 -0.5,-3.2 -1.5,-4.3 -1,-1 -2.4,-1.5 -4.2,-1.5 -1.8,0 -3.3,0.6 -4.4,1.8 -1.13718,1.370361 -1.70934,3.12261 -1.6,4.9 0,2 0.6,3.7 1.8,4.8 1.30818,1.185933 3.03701,1.798228 4.8,1.7 z m 1.9,-8 h -4.9 c 0,-0.9 0.3,-1.6 0.7,-2 0.5,-0.5 1,-0.7 1.8,-0.7 0.7,0 1.3,0.2 1.7,0.7 0.5,0.4 0.7,1.1 0.7,2 z m 16,7.8 V 28.5 h -3.6 v 16.7 h 3.5 z m 7.3,0 v -6 c 0,-1.5 0.2,-2.6 0.7,-3.2 0.4,-0.7 1.1,-1 2,-1 0.8,0 1.3,0.2 1.6,0.7 0.4,0.4 0.5,1.1 0.5,2 v 7.5 h 3.5 v -8.3 c 0,-1.5 -0.4,-2.7 -1.2,-3.5 -0.7,-0.8 -1.8,-1.2 -3.3,-1.2 -0.9,0 -1.7,0.2 -2.3,0.5 -0.7,0.3 -1.3,0.8 -1.6,1.4 h -0.2 L 283,32.4 h -2.7 v 12.8 z m 13.6,-14.3 c 0.6,0 1.1,-0.2 1.4,-0.5 0.3,-0.3 0.5,-0.7 0.5,-1.2 0,-1.2 -0.6,-1.7 -1.9,-1.7 -1.2,0 -1.9,0.5 -1.9,1.7 0,1.1 0.7,1.7 2,1.7 z m 1.7,14.3 V 32.4 h -3.4 v 12.8 z m 8,0.2 c 1.3,0 2.4,-0.2 3.2,-0.6 v -2.6 c -0.8,0.3 -1.5,0.4 -2.1,0.4 -0.5,0 -0.9,0 -1.1,-0.3 -0.3,-0.2 -0.5,-0.6 -0.5,-1.1 V 35 h 3.6 v -2.7 h -3.6 v -2.7 h -2.2 l -1,2.7 -1.9,1.2 V 35 h 1.7 v 6 c 0,1.5 0.3,2.6 1,3.3 0.6,0.7 1.6,1 3,1 z m 7.6,-14.5 c 0.6,0 1,-0.2 1.4,-0.5 0.3,-0.3 0.4,-0.7 0.4,-1.2 0,-1.2 -0.6,-1.7 -1.8,-1.7 -1.3,0 -2,0.5 -2,1.7 0,1.1 0.7,1.7 2,1.7 z m 1.7,14.3 V 32.4 h -3.5 v 12.8 z m 6.7,0.2 c 1,0 1.8,-0.1 2.4,-0.4 0.7,-0.3 1.3,-0.8 1.8,-1.6 h 0.1 l 0.7,1.8 h 2.4 v -8.5 c 0,-1.5 -0.4,-2.7 -1.3,-3.4 -1.16013,-0.830609 -2.57829,-1.220603 -4,-1.1 -1.7,0 -3.4,0.4 -4.8,1.1 l 1.1,2.4 c 1.11684,-0.581493 2.34326,-0.922166 3.6,-1 1.3,0 2,0.7 2,2 v 0.6 h -2.2 c -2,0 -3.4,0.4 -4.3,1 -1,0.7 -1.4,1.7 -1.4,3 0,1.4 0.3,2.4 1,3 0.80377,0.767502 1.89061,1.166011 3,1.1 z m 1.3,-2.5 c -1,0 -1.7,-0.5 -1.7,-1.5 0,-0.7 0.3,-1.2 0.8,-1.5 0.5,-0.4 1.2,-0.5 2.2,-0.6 h 1.4 v 1 c 0,0.8 -0.3,1.4 -0.7,1.9 -0.5,0.4 -1.2,0.7 -2,0.7 z m 14,2.5 c 1.3,0 2.4,-0.2 3.3,-0.6 v -2.6 c -0.9,0.3 -1.6,0.4 -2.2,0.4 -0.5,0 -0.8,0 -1.1,-0.3 -0.3,-0.2 -0.4,-0.6 -0.4,-1.1 V 35 h 3.5 V 32.3 H 338 v -2.7 h -2.3 l -1,2.7 -1.9,1.2 V 35 h 1.7 v 6 c 0,1.5 0.3,2.6 1,3.3 0.6,0.7 1.6,1 3,1 z M 346,31 c 0.6,0 1,-0.2 1.4,-0.5 0.3,-0.3 0.5,-0.7 0.5,-1.2 0,-1.2 -0.7,-1.7 -2,-1.7 -1.2,0 -1.8,0.5 -1.8,1.7 0,1.1 0.6,1.7 1.9,1.7 z m 1.7,14.3 V 32.4 h -3.5 v 12.8 h 3.5 z m 10.2,0 4.9,-12.8 h -3.6 l -2.5,7.3 c -0.3,1 -0.5,1.9 -0.5,2.6 l -0.6,-2.6 -2.4,-7.3 h -3.7 l 4.9,12.8 z m 12.5,0.2 c 1,0 1.8,0 2.5,-0.2 l 2,-0.7 v -2.7 c -0.8,0.4 -1.5,0.6 -2.2,0.8 l -2.2,0.2 c -0.84529,0.07048 -1.6809,-0.220173 -2.3,-0.8 -0.5,-0.6 -0.8,-1.3 -0.8,-2.3 h 8.2 V 38 c 0,-1.8 -0.5,-3.2 -1.5,-4.3 -1,-1 -2.4,-1.5 -4.2,-1.5 -2,0 -3.4,0.6 -4.5,1.8 -1.13718,1.370361 -1.70934,3.12261 -1.6,4.9 0,2 0.6,3.7 1.8,4.8 1.30818,1.185933 3.03701,1.798228 4.8,1.7 z m 2,-8 h -5 c 0.1,-0.9 0.3,-1.6 0.8,-2 0.4,-0.5 1,-0.7 1.7,-0.7 0.7,0 1.3,0.2 1.7,0.7 0.5,0.4 0.7,1.1 0.7,2 z"
     id="path8"
     sodipodi:nodetypes="scscscscsscccsssccccscccccccccccscsscscsscccccccccscscccccccssccscscsccscscccccccccscccccccccccscsccccssccccccccssscccsccccscscscccssccccccscscsccscsscccsccccccccccsccccssscccccsscccccccccscsccccccsscccccccccscscsccscsccccccccssssccccccccccscsccccccccccscccscsssscccccccccccscccccscscscccsscccscscccscsccccccccccscccscsssscccccccccccccccccccccccccscsccccccccsccc" />
</svg>
