<svg xmlns="http://www.w3.org/2000/svg" width="376" height="94" viewBox="0 0 376 94"><g fill="none" fill-rule="evenodd"><path fill="#3DA639" d="M51.8 62c6.1-2.3 9.3-6.7 9.3-14.2 0-7.6-6.3-14.2-14.3-14.2-8.4 0-14.8 6.6-14.7 14.2.1 7.5 3.8 12.6 9.6 14.4L31.4 87.4C17.6 83.8 3.6 67.7 3.6 47.8 3.6 24.2 22.6 5 46.5 5a43 43 0 0143.1 42.7c0 20.2-13.8 36.1-27.9 39.6L51.7 62z"/><path stroke="#1E531D" stroke-linecap="round" stroke-linejoin="round" stroke-width="4" d="M51.8 62c6.1-2.3 9.3-6.7 9.3-14.2 0-7.6-6.3-14.2-14.3-14.2-8.4 0-14.8 6.6-14.7 14.2.1 7.5 3.8 12.6 9.6 14.4L31.4 87.4C17.6 83.8 3.6 67.7 3.6 47.8 3.6 24.2 22.6 5 46.5 5a43 43 0 0143.1 42.7c0 20.2-13.8 36.1-27.9 39.6L51.7 62z"/><path fill="#3DA639" fill-rule="nonzero" d="M82.7 88.2a2.6 2.6 0 001.8-.7 2.5 2.5 0 00.8-1.9 2.6 2.6 0 00-.8-1.8l-.8-.5a2.6 2.6 0 00-2.8.5 2.5 2.5 0 00-.7 1.8 2.6 2.6 0 00.7 1.9 2.5 2.5 0 001.8.7zm0-.5c-.3 0-.6 0-.8-.2-.2 0-.5-.2-.6-.4a2 2 0 01-.4-.6c-.2-.3-.2-.6-.2-.9a2.2 2.2 0 01.6-1.5c.1-.2.4-.3.6-.4l.8-.2a2 2 0 011.4.6l.5.7.1.8-.1.9a1.9 1.9 0 01-1 1l-.9.2zm-.4-.8V86h.5l.5.9h.6l-.6-1 .4-.4.1-.4c0-.3-.1-.5-.3-.6-.2-.2-.5-.2-.7-.2h-1v2.6h.5zm.3-1.3h-.3v-.9h.4l.4.1.1.3c0 .3-.2.5-.6.5z"/><path fill="#FFF" fill-rule="nonzero" d="M126.6 45.4c2.5 0 4.5-.7 5.9-2.2 1.3-1.5 2-3.6 2-6.4 0-2.7-.7-4.8-2-6.3-1.4-1.5-3.3-2.2-5.9-2.2-2.5 0-4.5.7-5.9 2.2-1.3 1.4-2 3.5-2 6.3s.7 5 2 6.4c1.4 1.5 3.3 2.2 5.9 2.2zm0-3c-1.4 0-2.5-.4-3.2-1.4a7 7 0 01-1-4.2 7 7 0 011-4.2c.8-1 1.8-1.4 3.2-1.4 2.8 0 4.2 1.9 4.2 5.6 0 3.8-1.4 5.6-4.2 5.6zm14.6 8.4v-5.2l-.2-1.8h.2c.8 1 2 1.6 3.5 1.6 1 0 1.8-.3 2.6-.8a5 5 0 001.7-2.3c.4-1 .6-2.2.6-3.5a8 8 0 00-1.3-4.8c-.8-1.2-2-1.8-3.5-1.8a4 4 0 00-3.6 1.9h-.2l-.5-1.7h-2.8v18.4h3.5zm2.5-8.2c-.9 0-1.5-.3-2-.9-.3-.6-.5-1.6-.5-3v-.3c0-1.2.2-2 .6-2.6.4-.5 1-.8 1.9-.8.8 0 1.4.3 1.8 1 .4.6.5 1.5.5 2.7 0 2.6-.7 3.9-2.3 3.9zm14.5 2.8c1 0 1.9 0 2.5-.2l2-.7v-2.7c-.8.4-1.5.6-2.2.8l-2.1.2a3 3 0 01-2.3-.8c-.6-.6-.9-1.3-.9-2.3h8.2V38c0-1.8-.5-3.2-1.5-4.3-1-1-2.4-1.5-4.2-1.5-1.9 0-3.4.6-4.4 1.8a7 7 0 00-1.6 4.9c0 2 .6 3.7 1.7 4.8a6.6 6.6 0 004.8 1.7zm2-8h-5c.1-.9.4-1.6.8-2 .4-.5 1-.7 1.7-.7.8 0 1.3.2 1.8.7.4.4.6 1.1.7 2zm9.5 7.8v-6c0-1.5.2-2.6.7-3.2.4-.7 1-1 2-1 .8 0 1.3.2 1.6.7.3.4.5 1.1.5 2v7.5h3.5v-8.3c0-1.5-.4-2.7-1.2-3.5-.7-.8-1.9-1.2-3.3-1.2-.9 0-1.7.2-2.4.5-.6.3-1.2.8-1.6 1.4h-.1l-.5-1.7h-2.7v12.8h3.5zm21.9.2a7 7 0 004.5-1.3c1-.9 1.6-2 1.6-3.5 0-1.1-.3-2-.9-2.8a8.9 8.9 0 00-3.2-2.2l-2.2-1.2-.7-.7-.2-.8c0-.5.2-.9.5-1.2.4-.3 1-.5 1.6-.5a7 7 0 011.7.2l2.2.8 1.1-2.7a17 17 0 00-2.4-.9c-.8-.2-1.6-.3-2.5-.3-1.8 0-3.1.4-4.1 1.3-1 .8-1.5 2-1.5 3.4 0 .8.1 1.5.4 2 .3.7.7 1.2 1.2 1.6.5.5 1.3 1 2.3 1.4l2.2 1.1.8.8c.2.2.3.5.3.8 0 .6-.3 1-.7 1.3a3 3 0 01-1.8.5l-2-.3-3-1v3.2c1.4.7 3 1 4.8 1zm14.2 0a6 6 0 004.6-1.7c1-1.2 1.6-2.8 1.6-5 0-1.2-.2-2.4-.7-3.4-.5-1-1.2-1.8-2.2-2.3-1-.5-2-.8-3.2-.8a6 6 0 00-4.6 1.7 6.8 6.8 0 00-1.6 4.9c0 1.3.2 2.5.7 3.5.5 1 1.3 1.8 2.2 2.3 1 .5 2 .8 3.2.8zm0-2.8c-.9 0-1.5-.3-2-1-.4-.6-.6-1.5-.6-2.8 0-1.3.2-2.2.6-2.8.4-.7 1.1-1 2-1 1 0 1.6.3 2 1 .5.6.7 1.5.7 2.8 0 1.3-.2 2.2-.6 2.9-.4.6-1.1 1-2 1zm13.5 2.8c1 0 1.7-.2 2.4-.5s1.2-.8 1.6-1.3h.1l.5 1.6h2.7V32.4H223v6c0 1.5-.2 2.6-.6 3.3-.5.6-1.2 1-2.2 1-.7 0-1.2-.3-1.5-.7-.3-.5-.5-1.2-.5-2.1v-7.5h-3.5v8.3c0 1.6.4 2.7 1.2 3.5.7.8 1.8 1.2 3.3 1.2zm14.4-.2v-6.5a3 3 0 011-2.4c.5-.6 1.4-.8 2.5-.8h1l.3-3.2h-1.2a4 4 0 00-2.2.6c-.6.4-1.2 1-1.6 1.7h-.1l-.6-2.2h-2.6v12.8h3.5zm12.3.2c.8 0 1.6 0 2.1-.2.6-.1 1.2-.4 1.7-.7v-3c-.5.4-1 .6-1.7.8-.5.2-1.1.3-1.8.3-1.8 0-2.7-1.3-2.7-3.7 0-2.6.9-3.9 2.7-3.9.5 0 1 0 1.4.2l1.5.6 1-2.7a8.8 8.8 0 00-4-.9c-2 0-3.5.6-4.6 1.7-1 1.2-1.6 2.8-1.6 5 0 4.3 2 6.5 6 6.5zm12.6 0c1 0 1.8 0 2.5-.2l2-.7v-2.7c-.8.4-1.5.6-2.2.8l-2.2.2a3 3 0 01-2.3-.8c-.5-.6-.8-1.3-.9-2.3h8.2V38c0-1.8-.5-3.2-1.5-4.3-1-1-2.4-1.5-4.2-1.5-1.8 0-3.3.6-4.4 1.8a7 7 0 00-1.6 4.9c0 2 .6 3.7 1.8 4.8a6.6 6.6 0 004.8 1.7zm1.9-8h-4.9c0-.9.3-1.6.7-2 .5-.5 1-.7 1.8-.7.7 0 1.3.2 1.7.7.5.4.7 1.1.7 2zm16 7.8V28.5h-3.6v16.7h3.5zm7.3 0v-6c0-1.5.2-2.6.7-3.2.4-.7 1.1-1 2-1 .8 0 1.3.2 1.6.7.4.4.5 1.1.5 2v7.5h3.5v-8.3c0-1.5-.4-2.7-1.2-3.5-.7-.8-1.8-1.2-3.3-1.2-.9 0-1.7.2-2.3.5-.7.3-1.3.8-1.6 1.4h-.2l-.5-1.7h-2.7v12.8h3.5zm13.6-14.3c.6 0 1.1-.2 1.4-.5.3-.3.5-.7.5-1.2 0-1.2-.6-1.7-1.9-1.7-1.2 0-1.9.5-1.9 1.7 0 1.1.7 1.7 2 1.7zm1.7 14.3V32.4h-3.4v12.8h3.4zm8 .2c1.3 0 2.4-.2 3.2-.6v-2.6c-.8.3-1.5.4-2.1.4-.5 0-.9 0-1.1-.3-.3-.2-.5-.6-.5-1.1V35h3.6v-2.7h-3.6v-2.7h-2.2l-1 2.7-1.9 1.2V35h1.7v6c0 1.5.3 2.6 1 3.3.6.7 1.6 1 3 1zm7.6-14.5c.6 0 1-.2 1.4-.5.3-.3.4-.7.4-1.2 0-1.2-.6-1.7-1.8-1.7-1.3 0-2 .5-2 1.7 0 1.1.7 1.7 2 1.7zm1.7 14.3V32.4h-3.5v12.8h3.5zm6.7.2c1 0 1.8-.1 2.4-.4.7-.3 1.3-.8 1.8-1.6h.1l.7 1.8h2.4v-8.5c0-1.5-.4-2.7-1.3-3.4a6 6 0 00-4-1.1c-1.7 0-3.4.4-4.8 1.1l1.1 2.4a9 9 0 013.6-1c1.3 0 2 .7 2 2v.6h-2.2c-2 0-3.4.4-4.3 1-1 .7-1.4 1.7-1.4 3 0 1.4.3 2.4 1 3a4 4 0 003 1.1zm1.3-2.5c-1 0-1.7-.5-1.7-1.5 0-.7.3-1.2.8-1.5.5-.4 1.2-.5 2.2-.6h1.4v1c0 .8-.3 1.4-.7 1.9-.5.4-1.2.7-2 .7zm14 2.5c1.3 0 2.4-.2 3.3-.6v-2.6c-.9.3-1.6.4-2.2.4-.5 0-.8 0-1.1-.3-.3-.2-.4-.6-.4-1.1V35h3.5v-2.7H338v-2.7h-2.3l-1 2.7-1.9 1.2V35h1.7v6c0 1.5.3 2.6 1 3.3.6.7 1.6 1 3 1zM346 31c.6 0 1-.2 1.4-.5.3-.3.5-.7.5-1.2 0-1.2-.7-1.7-2-1.7-1.2 0-1.8.5-1.8 1.7 0 1.1.6 1.7 1.9 1.7zm1.7 14.3V32.4h-3.5v12.8h3.5zm10.2 0l4.9-12.8h-3.6l-2.5 7.3c-.3 1-.5 1.9-.5 2.6l-.6-2.6-2.4-7.3h-3.7l4.9 12.8h3.5zm12.5.2c1 0 1.8 0 2.5-.2l2-.7v-2.7c-.8.4-1.5.6-2.2.8l-2.2.2a3 3 0 01-2.3-.8c-.5-.6-.8-1.3-.8-2.3h8.2V38c0-1.8-.5-3.2-1.5-4.3-1-1-2.4-1.5-4.2-1.5-2 0-3.4.6-4.5 1.8a7 7 0 00-1.6 4.9c0 2 .6 3.7 1.8 4.8a6.6 6.6 0 004.8 1.7zm2-8h-5c.1-.9.3-1.6.8-2 .4-.5 1-.7 1.7-.7s1.3.2 1.7.7c.5.4.7 1.1.7 2zM122 67.2a10.2 10.2 0 003-.5v-4H122v.8h1.9v2.6l-1.7.2c-1 0-1.9-.3-2.4-.9-.6-.5-.8-1.4-.8-2.5 0-1 .2-2 .8-2.5.6-.6 1.4-1 2.4-1 .7 0 1.4.2 2.2.5l.3-.8c-.7-.3-1.6-.5-2.5-.5-.8 0-1.6.2-2.2.5-.7.4-1.2.9-1.5 1.5-.4.7-.6 1.4-.6 2.3 0 1.3.4 2.4 1 3.1.8.8 1.8 1.2 3 1.2zm7 0c.5 0 .8-.1 1.2-.3l.8-.7.2.8h.8v-6.2h-1v3.3c0 .8-.1 1.4-.4 1.7-.3.4-.8.6-1.5.6-.5 0-.8-.2-1-.4-.3-.3-.4-.6-.4-1.2v-4h-1v4c0 .9.2 1.5.6 1.8.4.4 1 .6 1.7.6zm6.5 0c.4 0 .8-.1 1.1-.3.3 0 .7-.4 1-.7l.2.8h.7v-4.2c0-.7-.2-1.3-.5-1.6-.4-.3-1-.5-1.7-.5a4.4 4.4 0 00-2.1.5l.3.8c.6-.4 1.2-.5 1.8-.5.4 0 .8 0 1 .3.2.3.3.6.3 1.1v.4h-1c-2.1 0-3.1.8-3.1 2 0 .6.2 1 .5 1.4.4.3.9.5 1.5.5zm.2-.8c-.4 0-.7-.1-.9-.3-.2-.2-.3-.4-.3-.8s.2-.7.5-1c.3-.1.9-.3 1.6-.3h1v.5c0 .6-.2 1-.5 1.4a2 2 0 01-1.4.5zm5.7.6v-3.3c0-.6.2-1.1.5-1.5.4-.4.8-.7 1.3-.7l.7.1.1-.8-.7-.1c-.4 0-.8.1-1 .3-.4.2-.7.5-1 1v-1.2h-.9V67h1zm5.3.2c.5 0 .9-.1 1.2-.3.3 0 .6-.4 1-.7l.1.8h.7v-4.2c0-.7-.1-1.3-.5-1.6-.4-.3-.9-.5-1.6-.5a4.4 4.4 0 00-2.2.5l.3.8c.7-.4 1.3-.5 1.8-.5s.8 0 1 .3c.2.3.3.6.3 1.1v.4h-1c-2 0-3 .8-3 2 0 .6.1 1 .5 1.4.3.3.8.5 1.4.5zm.2-.8c-.4 0-.7-.1-.9-.3-.2-.2-.3-.4-.3-.8s.2-.7.5-1c.4-.1.9-.3 1.7-.3h.9v.5c0 .6-.2 1-.5 1.4a2 2 0 01-1.4.5zm5.7.6v-3.2c0-.8.2-1.4.5-1.8.3-.3.8-.5 1.4-.5.5 0 .9.1 1.1.4.2.2.4.6.4 1.1v4h1v-4c0-.8-.3-1.4-.7-1.8-.3-.3-1-.5-1.7-.5-.4 0-.8 0-1.1.2a2 2 0 00-.8.8l-.2-.9h-.8V67h1zm8.1.2a3.4 3.4 0 001-.2v-.7a3.1 3.1 0 01-.8 0 1 1 0 01-.8-.2c-.2-.2-.2-.5-.2-.9v-3.7h1.8v-.7h-1.8v-1.4h-.6l-.4 1.3-.9.4v.4h1v3.7c0 1.3.5 2 1.7 2zm4.9 0l1-.1a5 5 0 001-.4V66a5 5 0 01-2 .4 2 2 0 01-1.5-.5c-.3-.4-.5-1-.5-1.7h4.3v-.6a3 3 0 00-.7-2c-.4-.6-1-.8-1.8-.8-.9 0-1.5.3-2 .9-.5.6-.8 1.4-.8 2.4s.3 1.7.8 2.3c.5.6 1.3.9 2.2.9zm1.3-3.9h-3.3c0-.6.2-1 .5-1.3.3-.4.7-.5 1.2-.5s1 .1 1.2.5c.2.3.4.7.4 1.3zm5.2 3.9l1.1-.1a5 5 0 001-.4V66a5 5 0 01-2 .4 2 2 0 01-1.5-.5c-.4-.4-.5-1-.6-1.7h4.3v-.6a3 3 0 00-.6-2c-.5-.6-1.1-.8-2-.8-.7 0-1.4.3-1.9.9-.5.6-.7 1.4-.7 2.4s.2 1.7.8 2.3c.5.6 1.2.9 2.1.9zm1.3-3.9h-3.2c0-.6.2-1 .5-1.3.3-.4.7-.5 1.2-.5s.9.1 1.1.5c.3.3.4.7.4 1.3zm3.1-3.6l.4-.1.2-.5c0-.2 0-.4-.2-.5a.6.6 0 00-.4-.1l-.4.1-.1.5.1.5.4.1zm.5 7.3v-6.2h-1V67h1zm3 0v-3.2c0-.8 0-1.4.4-1.8.3-.3.8-.5 1.4-.5.5 0 .9.1 1.1.4.2.2.4.6.4 1.1v4h1v-4c0-.8-.3-1.4-.7-1.8-.3-.3-1-.5-1.7-.5-.4 0-.8 0-1.1.2a2 2 0 00-.8.8l-.2-.9h-.8V67h1zm8 2.8c1 0 1.8-.1 2.3-.5.6-.4.9-.9.9-1.6 0-.5-.2-1-.6-1.2-.3-.3-.8-.5-1.5-.5H187.2a.4.4 0 01-.2-.5c0-.3.2-.5.6-.8h.6c.7 0 1.3 0 1.7-.5.4-.3.6-.8.6-1.4a2 2 0 00-.4-1.3l1.2-.1v-.6H189l-.9-.1c-.7 0-1.3.2-1.7.5-.4.4-.6 1-.6 1.6 0 .4 0 .8.3 1.1.2.3.4.6.8.7a2 2 0 00-.6.5 1 1 0 00-.2.6c0 .2 0 .4.2.5 0 .2.2.3.4.3-.5.1-.8.3-1 .6-.3.3-.4.6-.4 1 0 .6.2 1 .6 1.3.5.3 1.1.4 2 .4zm.2-5.7c-.4 0-.8 0-1-.3-.3-.2-.4-.6-.4-1 0-.5.1-.8.4-1 .2-.3.5-.4 1-.4 1 0 1.4.4 1.4 1.4 0 .9-.5 1.3-1.4 1.3zm-.3 5c-.5 0-1 0-1.2-.2a.8.8 0 01-.4-.8c0-.4.1-.7.3-.9.3-.2.6-.3 1-.3h1.2c.6 0 1 0 1.2.2.2.1.3.4.3.7 0 .4-.2.7-.6 1-.4.2-1 .3-1.8.3zm9.5-2a3.4 3.4 0 001-.1v-.7a3.1 3.1 0 01-.8 0 1 1 0 01-.8-.2l-.2-.9v-3.7h1.8v-.7h-1.8v-1.4h-.6l-.4 1.3-.9.4v.4h1v3.7c0 1.3.5 2 1.7 2zm3.2 0v-3.3c0-.8.2-1.4.5-1.8.3-.3.8-.5 1.4-.5.5 0 .9.1 1.1.4.2.2.4.6.4 1.1v4h.9v-4c0-.8-.2-1.4-.6-1.8-.4-.3-1-.5-1.7-.5-.4 0-.8 0-1.2.3a2 2 0 00-.8.7v-3.5h-1V67h1zm8.9 0h1a5 5 0 001-.4V66a5 5 0 01-2 .4 2 2 0 01-1.5-.5c-.3-.4-.5-1-.5-1.7h4.3v-.6a3 3 0 00-.7-2c-.5-.6-1-.8-1.9-.8-.8 0-1.5.3-2 .9-.5.6-.7 1.4-.7 2.4s.3 1.7.8 2.3c.5.6 1.3.9 2.2.9zm1.3-3.8h-3.3c0-.6.2-1 .5-1.3.3-.4.7-.5 1.2-.5s.9.1 1.2.5c.2.3.4.7.4 1.3zm6.2-1.6l.2-3h-1l.2 3h.6zm4.5 5.5c.9 0 1.6-.3 2.1-.9.5-.6.8-1.4.8-2.4s-.3-1.8-.8-2.3c-.5-.6-1.2-1-2-1-1 0-1.7.4-2.2 1-.5.5-.8 1.3-.8 2.3 0 .7.2 1.2.4 1.7s.6.9 1 1.2c.4.2 1 .4 1.5.4zm0-.8c-.6 0-1-.2-1.4-.7a3 3 0 01-.5-1.8c0-.8.2-1.4.5-1.8.3-.4.8-.6 1.4-.6.6 0 1 .2 1.4.6.3.4.5 1 .5 1.8a3 3 0 01-.5 1.8c-.3.5-.8.7-1.4.7zm6.7.8c.5 0 .9-.1 1.2-.3.4-.2.6-.4.8-.7l.2.8h.8v-6.2h-1v3.3c0 .8-.1 1.4-.4 1.7-.3.4-.8.6-1.4.6-.5 0-1-.2-1.1-.4-.3-.3-.4-.6-.4-1.2v-4h-1v4c0 .9.2 1.5.6 1.8.4.4 1 .6 1.7.6zm6-.2v-3.3c0-.6.1-1.1.5-1.5.3-.4.8-.7 1.3-.7l.6.1.2-.8-.8-.1c-.4 0-.7.1-1 .3-.4.2-.7.5-.9 1l-.1-1.2h-.8V67h1zm4.3-5.3l.3-3h-1.1l.2 3h.6zm5.5-2l.4-.1.2-.5c0-.2 0-.4-.2-.5a.6.6 0 00-.4-.1l-.4.1-.1.5.1.5.4.1zm.5 7.3v-6.2h-1V67h1zm3 0v-3.2c0-.8.1-1.4.4-1.8.3-.3.8-.5 1.4-.5.5 0 .9.1 1.1.4.3.2.4.6.4 1.1v4h1v-4c0-.8-.3-1.4-.7-1.8-.3-.3-.9-.5-1.7-.5-.4 0-.8 0-1.1.2a2 2 0 00-.8.8l-.2-.9h-.8V67h1zm10.7.2a3 3 0 001.9-.5c.4-.3.6-.8.6-1.4 0-.4-.1-.7-.4-1a4 4 0 00-1.5-.8l-1-.5c-.3 0-.4-.2-.5-.3l-.1-.4c0-.3.1-.5.3-.6a2 2 0 011-.2c.5 0 1.1.1 1.7.4l.4-.8a5 5 0 00-2-.4c-.7 0-1.3.1-1.7.4-.4.3-.6.7-.6 1.2 0 .3 0 .6.2.8 0 .2.3.4.5.5l1.2.6c.7.2 1 .4 1.3.6l.3.6c0 .3-.1.6-.4.7-.3.2-.6.3-1.1.3a4.7 4.7 0 01-2-.5v.9a4 4 0 002 .4zm6.5 0c1 0 1.7-.3 2.2-.9.5-.6.7-1.4.7-2.4s-.2-1.8-.7-2.3c-.6-.6-1.2-1-2.1-1-1 0-1.6.4-2.1 1-.5.5-.8 1.3-.8 2.3 0 .7.1 1.2.4 1.7.2.5.5.9 1 1.2.4.2.9.4 1.4.4zm0-.8c-.6 0-1-.2-1.3-.7a3 3 0 01-.5-1.8c0-.8.1-1.4.5-1.8.3-.4.7-.6 1.4-.6.6 0 1 .2 1.4.6.3.4.5 1 .5 1.8a3 3 0 01-.5 1.8c-.3.5-.8.7-1.4.7zm6.8.8l1.2-.3.8-.7.2.8h.7v-6.2h-1v3.3c0 .8 0 1.4-.4 1.7-.3.4-.7.6-1.4.6-.5 0-.8-.2-1-.4-.3-.3-.4-.6-.4-1.2v-4h-1v4c0 .9.2 1.5.6 1.8.4.4 1 .6 1.7.6zm5.9-.2v-3.3c0-.6.2-1.1.5-1.5.4-.4.8-.7 1.3-.7l.7.1.1-.8-.7-.1c-.4 0-.8.1-1 .3-.4.2-.7.5-1 1v-1.2h-.9V67h1zm6.3.2c.6 0 1.2-.2 1.6-.4V66l-1.6.3c-.6 0-1-.2-1.4-.6-.3-.4-.5-1-.5-1.8 0-1.6.7-2.4 2-2.4l.6.1.7.2.3-.8a4.3 4.3 0 00-1.6-.3c-1 0-1.7.3-2.2.8-.5.6-.7 1.4-.7 2.5 0 1 .2 1.8.7 2.3.5.6 1.2.9 2.1.9zm5.7 0l1-.1a5 5 0 001-.4V66a5 5 0 01-2 .4 2 2 0 01-1.5-.5c-.3-.4-.5-1-.5-1.7h4.3v-.6a3 3 0 00-.7-2c-.5-.6-1-.8-1.9-.8-.8 0-1.5.3-2 .9-.4.6-.7 1.4-.7 2.4s.3 1.7.8 2.3c.5.6 1.3.9 2.2.9zm1.3-3.9h-3.3c0-.6.2-1 .5-1.3.3-.4.7-.5 1.2-.5s1 .1 1.2.5c.2.3.4.7.4 1.3zm3.1 3.9c.2 0 .4 0 .5-.2.2-.1.2-.3.2-.6 0-.2 0-.4-.2-.5a.7.7 0 00-.5-.2c-.2 0-.4 0-.5.2l-.1.5.1.6.5.2zm3.1 0c.2 0 .4 0 .5-.2.2-.1.2-.3.2-.6 0-.2 0-.4-.2-.5a.7.7 0 00-.5-.2c-.2 0-.4 0-.5.2l-.1.5c0 .3 0 .5.2.6l.4.2zm3.1 0c.3 0 .4 0 .5-.2.2-.1.2-.3.2-.6l-.1-.5a.7.7 0 00-.6-.2c-.2 0-.3 0-.5.2l-.1.5c0 .3 0 .5.2.6l.4.2z"/></g></svg>
